<svg xmlns="http://www.w3.org/2000/svg" xmlns:xlink="http://www.w3.org/1999/xlink" width="588" height="478" viewBox="0 0 588 478">
  <defs>
    <filter id="banner-shape" x="0" y="0" width="588" height="478" filterUnits="userSpaceOnUse">
      <feOffset dy="3" input="SourceAlpha"/>
      <feGaussianBlur stdDeviation="3" result="blur"/>
      <feFlood flood-opacity="0.161"/>
      <feComposite operator="in" in2="blur"/>
      <feComposite in="SourceGraphic"/>
    </filter>
  </defs>
  <g id="banner-shape-2" data-name="banner-shape" transform="translate(-206 -159.445)">
    <g id="banner-shape-3" data-name="banner-shape" transform="translate(215.681 234.468)">
      <path id="Path_1015" data-name="Path 1015" d="M395.591,362.626q6.621-3.171,13.293-6.175t13.407-5.848q6.739-2.844,13.525-5.521t13.648-5.193q7.135-2.626,14.305-5.077,7.191-2.458,14.415-4.74,7.249-2.289,14.535-4.4,7.314-2.118,14.655-4.054,7.505-1.984,15.016-3.756,7.551-1.783,15.114-3.351,7.6-1.576,15.215-2.936,7.656-1.367,15.321-2.509,7.833-1.17,15.631-2.064,7.853-.9,15.662-1.52,7.867-.623,15.685-.95,7.885-.335,15.7-.368,6.935.128,13.811.485,6.93.358,13.787.95,6.918.6,13.757,1.432,6.9.844,13.716,1.935c4.537.746,8.979,1.582,13.287,2.512,4.35.94,8.561,1.974,12.593,3.107,4.072,1.14,7.959,2.39,11.618,3.738a105.783,105.783,0,0,1,10.337,4.4,67.391,67.391,0,0,1,8.826,5.168,40.708,40.708,0,0,1,6.829,5.919,25.18,25.18,0,0,1,4.45,6.693,19.327,19.327,0,0,1,1.677,7.482,22.564,22.564,0,0,1-1.54,8.408,37.855,37.855,0,0,1-5.21,9.228,72.043,72.043,0,0,1-9.265,10.022,134.164,134.164,0,0,1-13.662,10.773q-4.952,3.128-9.524,6.467t-8.751,6.875q-4.179,3.54-7.944,7.263t-7.095,7.631c-1.985,2.367-3.794,4.739-5.451,7.119s-3.176,4.791-4.56,7.208-2.66,4.874-3.828,7.344-2.246,4.988-3.245,7.527c-1.014,2.58-1.951,5.193-2.841,7.846-.895,2.669-1.742,5.378-2.565,8.134-.832,2.773-1.643,5.6-2.463,8.473-.825,2.9-1.658,5.847-2.527,8.862q-1.329,4.93-2.9,9.934-1.582,5.034-3.407,10.142-1.837,5.139-3.921,10.342-2.1,5.235-4.445,10.529-3.373,6.174-7.335,12.318-3.986,6.18-8.55,12.3-4.586,6.147-9.733,12.19-5.171,6.07-10.883,12-6.075,6.307-12.645,12.409-6.606,6.115-13.663,11.992-7.077,5.889-14.578,11.495-7.517,5.612-15.416,10.9-8.386,5.619-17.093,10.83t-17.688,9.983q-8.972,4.767-18.154,9.061t-18.485,8.075q-9.88,4.013-19.807,7.429-9.894,3.4-19.767,6.191-9.831,2.776-19.57,4.924-9.69,2.137-19.232,3.639a416.21,416.21,0,0,1-64.951.791,243.555,243.555,0,0,1-49.635-8.393,143.282,143.282,0,0,1-35.84-15.419,94.153,94.153,0,0,1-23.768-20.532A78.2,78.2,0,0,1,220.3,606.882a85.425,85.425,0,0,1-4.7-25.288,111.657,111.657,0,0,1,2.264-26.22,153.548,153.548,0,0,1,7.974-26.424A204.646,204.646,0,0,1,237.934,503.9a258.93,258.93,0,0,1,15.652-24.284q8.55-11.8,18.654-23.265,9.928-11.266,21.226-22.067,11.172-10.668,23.331-20.573,12.021-9.8,24.9-18.81,12.774-8.939,26.3-17.041Q381.458,369.792,395.591,362.626Z" transform="translate(-215.119 -304.022)" fill="none"/>
      <path id="Path_1016" data-name="Path 1016" d="M499.651,646.36l-.311-.966q2.957-1.332,5.913-2.725t5.9-2.838q2.941-1.444,5.86-2.937t5.8-3.028l.432.907q-2.894,1.542-5.828,3.043t-5.89,2.953q-2.955,1.452-5.928,2.852T499.651,646.36Zm0,0q-1.674.754-3.362,1.5t-3.381,1.467q-1.694.725-3.389,1.433t-3.383,1.393q-2.289.929-4.594,1.833t-4.615,1.775q-2.31.871-4.62,1.709T467.7,659.1l-.147-1.025q2.287-.8,4.584-1.631t4.6-1.7q2.3-.868,4.592-1.766t4.57-1.824q1.68-.683,3.366-1.386t3.371-1.425q1.686-.722,3.364-1.46t3.345-1.489Zm53.67-29.339-.586-.812q.55-.358,1.1-.72t1.1-.726l1.1-.729,1.092-.729q3.035-2.031,6.031-4.123t5.936-4.234q2.938-2.14,5.817-4.326t5.675-4.4l.731.7q-2.814,2.232-5.7,4.428T569.77,605.7q-2.957,2.155-5.967,4.258T557.74,614.1l-1.1.733-1.106.732q-.553.365-1.108.73T553.322,617.021ZM435.707,668.652q-3.551.882-7.1,1.684t-7.078,1.518q-3.524.717-7.023,1.348t-6.941,1.172l-.021,0h-.021l-.787.066-.788.065-.787.063-.782.062.247-1.092.774-.062.779-.063.781-.064.779-.066q3.43-.54,6.9-1.168t6.983-1.343q3.51-.715,7.037-1.512t7.063-1.678Zm170.777-93.764-.858-.575q.976-.946,1.948-1.9t1.929-1.917q.958-.96,1.9-1.925t1.871-1.926q1.845-1.914,3.645-3.855t3.541-3.9q1.741-1.954,3.423-3.922t3.294-3.932l.969.433q-1.622,1.981-3.31,3.957t-3.441,3.946q-1.753,1.971-3.56,3.921t-3.665,3.88q-.932.968-1.881,1.937t-1.912,1.935q-.965.968-1.939,1.928T606.484,574.888ZM374.777,676.035q-3.649.054-7.243.042t-7.095-.086q-3.5-.074-6.921-.213t-6.725-.337l.431-1.057q3.3.2,6.7.331t6.9.208q3.5.073,7.072.081t7.219-.047ZM645.538,527.2l-1.054-.283q.685-1.11,1.356-2.227t1.321-2.233q.65-1.116,1.28-2.231t1.235-2.221q.865-1.947,1.7-3.9t1.634-3.887q.8-1.935,1.562-3.862t1.486-3.825l1.116.105q-.725,1.911-1.489,3.842t-1.566,3.881q-.8,1.951-1.637,3.906t-1.7,3.917l-.008.016-.009.017q-.61,1.116-1.243,2.238t-1.287,2.249q-.656,1.126-1.328,2.251T645.538,527.2ZM320.716,672.743q-3.165-.477-6.256-1.027t-6.074-1.16q-2.983-.613-5.873-1.288t-5.652-1.408l.6-.986q2.764.728,5.633,1.4t5.852,1.277q2.984.608,6.053,1.15t6.234,1.017Zm-45.177-12q-2.518-1.039-4.945-2.153T265.86,656.3q-2.309-1.17-4.511-2.4t-4.275-2.51l.741-.87q2.073,1.275,4.26,2.494t4.5,2.385q2.309,1.167,4.718,2.268t4.926,2.138ZM664.993,478.864l-1.116-.02.117-.423c.04-.141.079-.282.117-.424s.078-.282.116-.424.077-.281.115-.421v-.006q.231-.8.46-1.6t.454-1.587l.447-1.568q.222-.778.44-1.544.549-1.929,1.083-3.8t1.065-3.688q.53-1.818,1.067-3.605t1.09-3.55l1.087.023q-.552,1.767-1.084,3.547t-1.062,3.6q-.53,1.823-1.06,3.687t-1.078,3.8q-.218.765-.438,1.545t-.446,1.569q-.225.789-.453,1.587l-.458,1.6c-.038.141-.076.281-.115.423s-.077.283-.115.425l-.117.426ZM241.755,639.889q-1.2-1.1-2.347-2.232t-2.239-2.29q-1.092-1.157-2.127-2.34t-2.006-2.38q-.423-.52-.837-1.048t-.818-1.06q-.4-.532-.8-1.068t-.773-1.073l.828-.709q.379.533.77,1.066t.8,1.061q.4.53.815,1.054t.834,1.041q.972,1.193,2,2.365t2.119,2.325q1.09,1.153,2.233,2.275t2.34,2.218ZM679.834,434.766l-1.031-.1q1.369-2.776,2.865-5.406t3.126-5.126q1.629-2.5,3.41-4.893t3.717-4.7l.92.241q-1.925,2.3-3.687,4.671t-3.381,4.858q-1.62,2.488-3.1,5.092T679.834,434.766Zm31.646-37.834-.776-.367q1.709-1.357,3.485-2.687t3.611-2.628q1.834-1.3,3.724-2.561t3.827-2.487q1-.7,1.981-1.4t1.92-1.4q.943-.7,1.852-1.395t1.776-1.382l.793.35q-.876.7-1.795,1.4t-1.871,1.409q-.953.707-1.94,1.416t-2,1.416l-.012.009-.012.009q-1.927,1.217-3.8,2.473t-3.7,2.547q-1.824,1.291-3.589,2.612T711.481,396.933ZM221.387,611.167q-.829-2-1.55-4.053t-1.328-4.138q-.607-2.082-1.106-4.2t-.883-4.257l.848-.514q.389,2.13.885,4.231t1.106,4.18q.61,2.081,1.327,4.113t1.548,4.028ZM750.725,363.4l-1-.123a38.182,38.182,0,0,0,2.3-3.958,29.9,29.9,0,0,0,1.616-3.867,23.954,23.954,0,0,0,.939-3.76,20.2,20.2,0,0,0,.266-3.637q-.006-.324-.024-.647t-.045-.644q-.028-.322-.066-.641t-.088-.635l1.059-.2q.05.322.09.647t.069.653c.019.219.035.437.047.656s.021.439.025.658a20.516,20.516,0,0,1-.265,3.7,24.3,24.3,0,0,1-.951,3.829,30.342,30.342,0,0,1-1.64,3.938A39.056,39.056,0,0,1,750.725,363.4Zm-5-32.389q-1.244-1.08-2.659-2.13t-2.981-2.056q-1.566-1.006-3.287-1.975t-3.575-1.887q-.516-.255-1.047-.509c-.352-.169-.711-.338-1.072-.505s-.726-.333-1.094-.5-.738-.329-1.112-.49l.723-.505q.564.244,1.121.493t1.1.5q.547.254,1.082.508t1.055.513q1.88.929,3.612,1.9t3.323,1.991q1.587,1.019,3.015,2.074t2.69,2.15ZM215.1,576.834q.029-2.236.156-4.514t.351-4.566q.222-2.287.541-4.6t.726-4.617l.8-.317q-.4,2.3-.717,4.594t-.533,4.575q-.219,2.286-.344,4.541t-.149,4.49ZM708.849,314.159q-2.461-.657-5.04-1.275t-5.238-1.191q-2.659-.573-5.412-1.1t-5.563-1.015l.508-.533q2.833.486,5.586,1.015t5.434,1.1q2.682.576,5.261,1.192t5.063,1.277ZM222.261,539.78l-.761.226q.436-1.362.9-2.738t.961-2.749q.494-1.374,1.016-2.751t1.066-2.744q.371-.928.754-1.863t.78-1.869q.4-.933.8-1.868t.825-1.86l.713-.145q-.415.925-.819,1.853t-.8,1.86q-.393.931-.775,1.86t-.749,1.854q-.543,1.364-1.059,2.731t-1.009,2.739q-.492,1.371-.955,2.737T222.261,539.78ZM665.937,306.613q-2.689-.286-5.4-.539t-5.427-.466q-2.71-.214-5.43-.392t-5.417-.317l.387-.521q2.713.138,5.43.315t5.444.389q2.729.214,5.442.464t5.419.538ZM238.5,503.388l-.663.07q1.257-2.206,2.582-4.422t2.7-4.415q1.378-2.2,2.816-4.394t2.916-4.359l.609-.006q-1.478,2.165-2.9,4.342t-2.8,4.378q-1.377,2.2-2.691,4.4T238.5,503.388ZM622.53,304.527q-2.716.064-5.455.165t-5.471.238q-2.733.137-5.471.308t-5.452.377l.249-.5q2.729-.207,5.465-.379t5.484-.311q2.747-.138,5.485-.241t5.469-.168Zm-360.6,164.447-.556-.053q1.633-2.053,3.321-4.1t3.414-4.08q1.726-2.029,3.5-4.043t3.565-3.994l.5.1q-1.794,1.978-3.552,3.98t-3.482,4.031q-1.724,2.028-3.4,4.067T261.934,468.974ZM578.98,307.789q-1.375.172-2.761.353t-2.769.371q-1.384.19-2.767.388t-2.756.4q-1.3.194-2.612.4t-2.618.409q-1.308.208-2.615.422t-2.6.434l.151-.476q1.3-.219,2.61-.435t2.62-.424q1.312-.209,2.623-.411t2.617-.4q1.378-.205,2.763-.4t2.773-.389q1.389-.191,2.776-.372t2.767-.355ZM290.5,437.413l-.449-.15q.393-.385.789-.77l.793-.77.8-.768q.4-.383.8-.764,1.535-1.465,3.1-2.925t3.147-2.906q1.582-1.445,3.183-2.875t3.209-2.837l.4.192q-1.606,1.4-3.2,2.829t-3.173,2.867q-1.579,1.442-3.136,2.9t-3.089,2.917l-.793.761-.793.766q-.4.383-.791.768Zm245.73-122.426q-2.622.549-5.255,1.128t-5.259,1.181q-2.625.6-5.246,1.229t-5.216,1.274l.075-.449q2.6-.65,5.226-1.278t5.255-1.232q2.635-.606,5.269-1.185t5.264-1.131ZM322.817,409.117l-.346-.23q2.106-1.656,4.25-3.295t4.308-3.254q2.166-1.614,4.354-3.2t4.385-3.142l.3.264q-2.193,1.55-4.373,3.133t-4.341,3.195q-2.162,1.612-4.3,3.245T322.817,409.117ZM494.55,325.345q-2.555.731-5.12,1.489t-5.121,1.537q-2.556.778-5.107,1.579t-5.076,1.616l.012-.425q2.532-.818,5.083-1.619t5.115-1.582q2.564-.782,5.129-1.54t5.127-1.492ZM357.913,384.282l-.245-.3q2.26-1.438,4.55-2.855t4.6-2.807q2.307-1.391,4.63-2.753t4.649-2.689l.195.325q-2.321,1.324-4.637,2.681t-4.618,2.746q-2.3,1.388-4.584,2.8T357.913,384.282Zm96.06-45.839-1.13.407-1.132.41-1.13.413-1.127.413q-1.921.7-3.85,1.426t-3.852,1.458q-1.925.735-3.845,1.484t-3.822,1.506l-.048-.4q1.907-.76,3.828-1.509t3.85-1.487q1.929-.738,3.859-1.461t3.856-1.429l1.128-.414,1.132-.413,1.134-.411,1.13-.408Zm-39.51,15.721q-2.2.963-4.4,1.948t-4.4,1.99q-2.2,1-4.383,2.024t-4.357,2.053l-.324.154-.325.155-.325.155-.324.155-.126.065-.126.064-.126.065-.126.064-.143-.351.128-.066.128-.066.129-.066.128-.065.008,0,.008,0,.327-.157.327-.156.328-.157.326-.155q2.173-1.035,4.364-2.057t4.391-2.028q2.2-1.006,4.4-1.993t4.4-1.951Z" transform="translate(-215.097 -304.014)" fill="#176c80"/>
    </g>
    <g transform="matrix(1, 0, 0, 1, 206, 159.45)" filter="url(#banner-shape)">
      <path id="banner-shape-4" data-name="banner-shape" d="M449.731,256.483a375.24,375.24,0,0,1,71.232,6.477A406.723,406.723,0,0,1,592.32,283.1a375.88,375.88,0,0,1,66.974,33.576,321.618,321.618,0,0,1,58.518,47.438,345.54,345.54,0,0,1,39.923,53.512c11.314,18.931,19.924,38.328,23.894,56.463,4.016,18.346,3.3,35.464-4.208,49.551-7.615,14.294-22.239,25.506-46.07,31.718a117.791,117.791,0,0,0-39.918,15.713c-10.941,6.975-19.79,15.473-27.915,24.965-8.208,9.6-15.688,20.224-23.845,31.342a348.172,348.172,0,0,1-28.365,34.775A191.249,191.249,0,0,1,567.681,692.4a220.118,220.118,0,0,1-53.629,18.877,236.539,236.539,0,0,1-60.4,4.941,241.114,241.114,0,0,1-63.265-11.513C313.033,672.873,263.05,626.748,236.661,575.82,210.774,525.865,208.3,472.638,223.2,424.374c14.344-46.457,44.631-87.8,85.2-117.787A260.541,260.541,0,0,1,449.731,256.483Z" transform="translate(-205.05 -250.48)" fill="#fff"/>
    </g>
  </g>
</svg>
