<svg xmlns="http://www.w3.org/2000/svg" width="32.284" height="32.284" viewBox="0 0 32.284 32.284">
  <path id="close-icon" d="M-98.71,339.452l12.728-12.728a2,2,0,0,0,0-2.828,2,2,0,0,0-2.828,0l-12.728,12.728L-114.266,323.9a2,2,0,0,0-2.828,0,2,2,0,0,0,0,2.828l12.728,12.728-12.728,12.728a2,2,0,0,0,0,2.828,1.994,1.994,0,0,0,1.414.586,1.994,1.994,0,0,0,1.414-.586l12.728-12.728,12.728,12.728a1.994,1.994,0,0,0,1.414.586,1.994,1.994,0,0,0,1.414-.586,2,2,0,0,0,0-2.828Z" transform="translate(117.68 -323.31)" fill="#fff"/>
</svg>
