<svg xmlns="http://www.w3.org/2000/svg" width="197.71" height="98.418" viewBox="0 0 197.71 98.418">
  <g id="footer_logo" data-name="footer logo" transform="translate(-45.04 -53.703)">
    <path id="Path_1005" data-name="Path 1005" d="M133.55,134.855c-4.73.717-8.3,2.513-12.387,5.431.813-17.021.587-30.636,1.2-56.735,14.974-14.171,34.126-14.933,38.173-.119,2.177,12.223-7.361,22.084-13.273,25.318,13.322,31,21.924,29.188,21.924,29.188-19.2,13.941-30.968-17.072-34.947-23.5-.155,3.367-.386,14.155-.693,20.417m1.22-31.569c6.377-4.082,14.11-7.028,13.054-14.947-.418-2.841-6.479-4.238-12.559-1-.132,5.214-.3,8.666-.495,15.95" transform="translate(-32.678 -8.12)" fill="#fff"/>
    <path id="Path_1006" data-name="Path 1006" d="M307.618,55.115C304.649,77.406,293,122.209,293,122.209c-7.459.965-13.1,4.51-16.134,6.481-2.551-18.016-8-55.157-11.973-60.739q7.488-3.889,14.318-7.242c1.5,14.208,4.9,24.505,6.725,36.782.813-9.876,5.142-24,6.638-39.314q6.365-1.615,15.043-3.062" transform="translate(-94.378 -0.606)" fill="#fff"/>
    <path id="Path_1007" data-name="Path 1007" d="M331.538,133.984c.725-17.159,4.689-62.958,4.689-62.958l29.509-7.616c-.208,1.631-3.182,13.9-3.182,13.9l-16.123,3.505-.966,14.647s4.39-.911,9.514-2.374c-.4,5.077-1.929,13.1-1.929,13.1l-8.137,1.793c-.045,3.7-.188,6.259-.276,9.653l17.237-4.689a56.954,56.954,0,0,0-3.035,15.168,77.414,77.414,0,0,0-27.3,5.871" transform="translate(-122.986 -4.167)" fill="#fff"/>
    <path id="Subtraction_3" data-name="Subtraction 3" d="M26.452.033C14.606-.764,4.065,13.317,1.013,29.878-3.2,52.708,6.474,65.515,16.26,66.739c16.811,2.1,25.719-21.444,27.014-30.815C45.505,19.79,40.792,1,26.452.033" transform="translate(127.909 59.242)" fill="#fff" stroke="rgba(0,0,0,0)" stroke-width="1"/>
    <path id="Path_1009" data-name="Path 1009" d="M79.035,109.155l-.227-.843a22.874,22.874,0,0,1,4.378-.79l.045.871A22.635,22.635,0,0,0,79.035,109.155Z" transform="translate(-14.496 -23.103)" fill="#ffb705"/>
    <path id="Path_1011" data-name="Path 1011" d="M257.977,159.926a11.683,11.683,0,0,0-3.81-1.689l.17-.856a12.352,12.352,0,0,1,4.132,1.823Z" transform="translate(-89.773 -44.506)" fill="#ffb705"/>
    <path id="Path_1010" data-name="Path 1010" d="M85.348,178.611l-.018-.873a51.612,51.612,0,0,0,8.785-.979l.167.857A52.6,52.6,0,0,1,85.348,178.611Zm-8.969-.77a37.644,37.644,0,0,1-8.555-2.816l.37-.79a36.809,36.809,0,0,0,8.356,2.75Zm26.581-2.5-.267-.832c2.15-.69,4.114-1.4,6.1-2.124.755-.275,1.538-.544,2.325-.8l.271.83c-.779.253-1.552.519-2.3.791C107.1,173.933,105.124,174.645,102.96,175.34Zm-42.8-5.036a47.2,47.2,0,0,1-3.7-3.206,34.061,34.061,0,0,1-2.793-3.028l.677-.552a32.95,32.95,0,0,0,2.72,2.95,46.558,46.558,0,0,0,3.633,3.147Zm59.814-.131-.174-.855c2.757-.563,5.652-1.023,8.849-1.406l.1.867C125.58,169.158,122.709,169.614,119.975,170.172Zm17.647-2.215-.063-.871c1.463-.106,2.9-.2,4.314-.3,1.568-.1,3.1-.207,4.593-.318l.066.87c-1.5.112-3.031.215-4.6.319C140.521,167.755,139.084,167.851,137.622,167.957Zm17.82-1.582-.139-.862a31.524,31.524,0,0,0,8.434-2.391l.373.789A32.4,32.4,0,0,1,155.443,166.375Zm15.383-8.46-.757-.435a15.042,15.042,0,0,0,1.227-2.775,16.419,16.419,0,0,0,.913-5.1q0-.217-.009-.426l.873-.034q.008.227.008.46a17.28,17.28,0,0,1-.956,5.37A15.97,15.97,0,0,1,170.825,157.915Zm-121.908-1.5a41.566,41.566,0,0,1-2.829-8.547l.853-.185a40.668,40.668,0,0,0,2.769,8.367Zm-3.869-17.484q-.009-.445-.009-.882a36.992,36.992,0,0,1,.829-8.092l.85.2a36.12,36.12,0,0,0-.806,7.894q0,.428.009.866Zm5.3-16.694-.716-.5a24.445,24.445,0,0,1,6.45-6.325l.487.725A23.557,23.557,0,0,0,50.348,122.234Z" transform="translate(0 -26.489)" fill="#ffb705"/>
    <path id="Path_1012" data-name="Path 1012" d="M84.077,71.788c0,18.9-.825,52.932-.825,52.932a41.4,41.4,0,0,0-15.208,6.911c.923-20.608,1.462-41.191,1.616-55.426,0,0-13.092,4.252-18.138,7.45q-.2-7.945-.034-17.38C62.694,61.3,82.042,55.166,96.448,53.7c-.4,6.29-.659,10.611-.792,15.356-3.761.552-11.579,2.729-11.579,2.729" transform="translate(-2.736)" fill="#fff"/>
    <path id="Path_1018" data-name="Path 1018" d="M228.005,125.1a80.922,80.922,0,0,0-8.761,1.938q-2.472-5.908-4.113-9.71-1.681,2.368-4.889,6.809-5.138.1-11.084.2,6.086-8.2,11.882-16.347-3.72-8.426-7.111-15.575,3.539-.835,9.52-1.859,2.367,5.547,3.711,8.717,1.33-1.918,3.687-5.731,5.424-.538,11.1-.722-5.937,8.892-10.768,15.919,4.271,10.116,6.828,16.363" transform="translate(-66.159 -15.821)" fill="#ffb705" stroke="rgba(0,0,0,0)" stroke-width="1"/>
  </g>
</svg>
