<svg id="main-logo" xmlns="http://www.w3.org/2000/svg" width="230" height="115" viewBox="0 0 230 115">
  <path id="Path_1005" data-name="Path 1005" d="M135.609,145.2c-5.516.837-9.682,2.931-14.446,6.334.948-19.851.684-35.728,1.4-66.166,17.463-16.526,39.8-17.415,44.518-.138,2.539,14.254-8.585,25.754-15.479,29.526,15.536,36.154,25.568,34.04,25.568,34.04-22.389,16.258-36.115-19.909-40.756-27.406-.18,3.926-.45,16.508-.808,23.811m1.423-36.816c7.437-4.761,16.455-8.2,15.224-17.431-.488-3.313-7.556-4.942-14.647-1.169-.154,6.08-.346,10.106-.577,18.6" transform="translate(-70.663 -60.029)" fill="#ffb705"/>
  <path id="Path_1006" data-name="Path 1006" d="M314.72,55.115c-3.463,26-17.047,78.246-17.047,78.246-8.7,1.126-15.277,5.26-18.816,7.558-2.975-21.011-9.327-64.326-13.963-70.835q8.733-4.536,16.7-8.446c1.745,16.57,5.713,28.579,7.843,42.9.948-11.517,6-27.992,7.741-45.849Q304.6,56.8,314.72,55.115" transform="translate(-119.134 -54.175)" fill="#ffb705"/>
  <path id="Path_1007" data-name="Path 1007" d="M331.538,145.715c.846-20.012,5.468-73.423,5.468-73.423L371.42,63.41c-.243,1.9-3.711,16.212-3.711,16.212l-18.8,4.088-1.126,17.081s5.12-1.063,11.1-2.769c-.461,5.92-2.25,15.277-2.25,15.277l-9.489,2.091c-.053,4.312-.22,7.3-.321,11.257l20.1-5.468c-1.46,3.737-3.487,12.639-3.539,17.689-8.932.544-17.656,1.217-31.84,6.847" transform="translate(-141.42 -56.949)" fill="#ffb705"/>
  <path id="Path_1008" data-name="Path 1008" d="M221.089,63.447c-13.814-.929-26.108,15.492-29.668,34.806-4.908,26.626,6.369,41.562,17.781,42.988,19.606,2.452,29.994-25.008,31.5-35.937,2.6-18.815-2.894-40.73-19.618-41.856" transform="translate(-93.905 -56.949)" fill="#ffb705"/>
  <path id="Path_1009" data-name="Path 1009" d="M79.073,109.426l-.265-.983a26.676,26.676,0,0,1,5.106-.921l.053,1.016A26.4,26.4,0,0,0,79.073,109.426Z" transform="translate(-56.332 -71.63)" fill="#fff"/>
  <path id="Path_1010" data-name="Path 1010" d="M92.048,189.116l-.021-1.018a60.192,60.192,0,0,0,10.245-1.142l.2,1A61.342,61.342,0,0,1,92.048,189.116Zm-10.46-.9a43.9,43.9,0,0,1-9.977-3.284l.432-.921a42.926,42.926,0,0,0,9.745,3.207Zm31-2.916-.311-.97c2.507-.8,4.8-1.63,7.119-2.477.881-.32,1.793-.635,2.712-.934l.315.968c-.909.295-1.81.606-2.679.923C117.413,183.661,115.112,184.491,112.587,185.3Zm-49.913-5.873a55.038,55.038,0,0,1-4.317-3.739,39.714,39.714,0,0,1-3.257-3.532l.789-.644a38.434,38.434,0,0,0,3.172,3.44,54.3,54.3,0,0,0,4.237,3.67Zm69.756-.153-.2-1c3.215-.657,6.591-1.193,10.32-1.639l.12,1.012C138.968,178.092,135.619,178.624,132.43,179.275Zm20.581-2.583-.074-1.016c1.706-.124,3.385-.236,5.031-.345,1.829-.122,3.617-.241,5.357-.371l.077,1.015c-1.744.131-3.535.25-5.367.372C156.392,176.456,154.716,176.567,153.011,176.692Zm20.783-1.845-.162-1.005a36.764,36.764,0,0,0,9.835-2.789l.435.921A37.781,37.781,0,0,1,173.794,174.847Zm17.94-9.866-.883-.507a17.542,17.542,0,0,0,1.431-3.237,19.148,19.148,0,0,0,1.064-5.944q0-.253-.01-.5l1.018-.039q.009.265.009.536a20.152,20.152,0,0,1-1.115,6.263A18.625,18.625,0,0,1,191.733,164.981ZM49.562,163.228a48.476,48.476,0,0,1-3.3-9.967l1-.216a47.428,47.428,0,0,0,3.229,9.758Zm-4.512-20.39q-.01-.519-.01-1.029a43.141,43.141,0,0,1,.967-9.437L47,132.6a42.123,42.123,0,0,0-.94,9.206q0,.5.01,1.01Zm6.18-19.469-.835-.582a28.509,28.509,0,0,1,7.522-7.376l.568.845A27.473,27.473,0,0,0,51.23,123.369Z" transform="translate(-45.04 -74.116)" fill="#fff"/>
  <path id="Path_1011" data-name="Path 1011" d="M258.61,160.349a13.625,13.625,0,0,0-4.443-1.969l.2-1a14.4,14.4,0,0,1,4.818,2.127Z" transform="translate(-115.327 -88.236)" fill="#fff"/>
  <path id="Path_1012" data-name="Path 1012" d="M89.506,74.794c0,22.04-.962,61.73-.962,61.73a48.276,48.276,0,0,0-17.735,8.06c1.077-24.034,1.7-48.037,1.885-64.639,0,0-15.268,4.959-21.153,8.689q-.233-9.265-.04-20.269c13.068-5.8,35.632-12.955,52.432-14.661-.461,7.336-.769,12.375-.923,17.908-4.386.644-13.5,3.182-13.5,3.182" transform="translate(-47.171 -53.703)" fill="#ffb705"/>
  <path id="Path_1013" data-name="Path 1013" d="M232.8,130.846a94.373,94.373,0,0,0-10.217,2.26q-2.883-6.89-4.8-11.324-1.961,2.762-5.7,7.941-5.992.121-12.926.233,7.1-9.559,13.857-19.065-4.338-9.826-8.293-18.164,4.127-.973,11.1-2.169,2.761,6.47,4.328,10.166,1.552-2.237,4.3-6.683,6.326-.628,12.942-.842-6.924,10.37-12.558,18.565,4.981,11.8,7.963,19.083" transform="translate(-96.884 -65.952)" fill="#219ebc"/>
</svg>
