<svg xmlns="http://www.w3.org/2000/svg" width="30" height="30" viewBox="0 0 30 30">
  <path id="mobile-search" d="M-121.292,262.42l-5.879-5.879a13.3,13.3,0,0,0,3.006-8.429,13.379,13.379,0,0,0-13.364-13.364,13.379,13.379,0,0,0-13.364,13.364,13.379,13.379,0,0,0,13.364,13.364,13.3,13.3,0,0,0,8.429-3.006l5.879,5.879a1.357,1.357,0,0,0,.964.4,1.357,1.357,0,0,0,.964-.4A1.363,1.363,0,0,0-121.292,262.42Zm-16.237-3.672a10.648,10.648,0,0,1-10.636-10.636,10.648,10.648,0,0,1,10.636-10.636,10.648,10.648,0,0,1,10.636,10.636A10.648,10.648,0,0,1-137.529,258.748Z" transform="translate(150.893 -234.748)" fill="#fff"/>
</svg>
