<svg xmlns="http://www.w3.org/2000/svg" width="125.654" height="87.956" viewBox="0 0 125.654 87.956">
  <path id="money-icon" d="M121.953,6.66A58.14,58.14,0,0,0,99.1,2.25c-24.182,0-48.362,12.239-72.544,12.239A59.568,59.568,0,0,1,8.364,11.8a6.713,6.713,0,0,0-2.032-.318A6.247,6.247,0,0,0,0,17.723V80.011a6.244,6.244,0,0,0,3.7,5.784,58.107,58.107,0,0,0,22.855,4.412c24.182,0,48.364-12.241,72.546-12.241a59.569,59.569,0,0,1,18.19,2.694,6.713,6.713,0,0,0,2.032.318,6.247,6.247,0,0,0,6.332-6.245V12.445A6.251,6.251,0,0,0,121.953,6.66ZM9.424,21.926A68.324,68.324,0,0,0,21.738,23.68,12.58,12.58,0,0,1,9.424,33.8Zm0,55.954V68.5A12.561,12.561,0,0,1,21.932,80.555,47.43,47.43,0,0,1,9.424,77.881Zm53.4-12.8c-8.676,0-15.706-8.44-15.706-18.848S54.152,27.38,62.826,27.38s15.706,8.438,15.706,18.848S71.5,65.076,62.826,65.076Zm53.4,5.454a67.5,67.5,0,0,0-10.665-1.657A12.539,12.539,0,0,1,116.228,59.2Zm0-46.356A12.54,12.54,0,0,1,105.271,12.09a47.2,47.2,0,0,1,10.957,2.486Z" transform="translate(0 -2.25)" fill="#fff"/>
</svg>
