<svg xmlns="http://www.w3.org/2000/svg" width="18.001" height="18.002" viewBox="0 0 18.001 18.002">
  <path id="phone-icon" d="M19.167,14.979v2.409a1.608,1.608,0,0,1-1.754,1.606,15.941,15.941,0,0,1-6.943-2.465,15.672,15.672,0,0,1-4.827-4.817A15.869,15.869,0,0,1,3.174,4.75,1.607,1.607,0,0,1,4.775,3H7.189A1.608,1.608,0,0,1,8.8,4.381a10.292,10.292,0,0,0,.563,2.256A1.6,1.6,0,0,1,9,8.331L7.977,9.351A12.859,12.859,0,0,0,12.8,14.168l1.022-1.02a1.611,1.611,0,0,1,1.7-.361,10.346,10.346,0,0,0,2.261.562A1.607,1.607,0,0,1,19.167,14.979Z" transform="translate(-2.167 -2)" fill="none" stroke="#fff" stroke-linecap="round" stroke-linejoin="round" stroke-width="2"/>
</svg>
