<svg xmlns="http://www.w3.org/2000/svg" width="30" height="30" viewBox="0 0 30 30">
  <g id="user-icon" transform="translate(0 0)">
    <path id="Path_1019" data-name="Path 1019" d="M177.757-76.685a1.413,1.413,0,0,1-1.4-1.429v-3.1c0-.029,0-.059,0-.09a7.943,7.943,0,0,1,8.231-7.535h13.532a7.955,7.955,0,0,1,8.231,7.535c0,.03,0,.06,0,.09v3.1a1.413,1.413,0,0,1-1.4,1.429,1.413,1.413,0,0,1-1.4-1.429v-3.048a5.125,5.125,0,0,0-5.33-4.816l-.076,0h-13.6l-.076,0a5.135,5.135,0,0,0-5.331,4.816v3.05A1.412,1.412,0,0,1,177.757-76.685Z" transform="translate(-176.362 106.685)" fill="#fff"/>
    <path id="Path_1020" data-name="Path 1020" d="M193.964-97.637a7.613,7.613,0,0,1-7.583-7.625,7.613,7.613,0,0,1,7.583-7.625,7.614,7.614,0,0,1,7.584,7.625A7.613,7.613,0,0,1,193.964-97.637Zm0-12.391a4.759,4.759,0,0,0-4.741,4.766,4.758,4.758,0,0,0,4.74,4.766,4.758,4.758,0,0,0,4.74-4.766A4.758,4.758,0,0,0,193.965-110.028Z" transform="translate(-178.966 112.887)" fill="#fff"/>
  </g>
</svg>
