<svg xmlns="http://www.w3.org/2000/svg" width="20" height="14" viewBox="0 0 20 14">
  <path id="youtube" d="M20.632,6.691a2.507,2.507,0,0,0-1.768-1.772C17.3,4.5,11.05,4.5,11.05,4.5s-6.254,0-7.814.419A2.507,2.507,0,0,0,1.468,6.691a26.131,26.131,0,0,0-.418,4.824,26.131,26.131,0,0,0,.418,4.824,2.47,2.47,0,0,0,1.768,1.743c1.56.419,7.814.419,7.814.419s6.254,0,7.814-.419a2.47,2.47,0,0,0,1.768-1.743,26.131,26.131,0,0,0,.418-4.824,26.131,26.131,0,0,0-.418-4.824ZM9,14.475V8.554l5.227,2.961L9,14.475Z" transform="translate(-1.05 -4.5)" fill="#fff"/>
</svg>
